%TF.GenerationSoftware,KiCad,Pcbnew,8.0.8*%
%TF.CreationDate,2025-01-21T20:37:45-05:00*%
%TF.ProjectId,Pit_Droid_Controller,5069745f-4472-46f6-9964-5f436f6e7472,rev?*%
%TF.SameCoordinates,Original*%
%TF.FileFunction,Copper,L3,Inr*%
%TF.FilePolarity,Positive*%
%FSLAX46Y46*%
G04 Gerber Fmt 4.6, Leading zero omitted, Abs format (unit mm)*
G04 Created by KiCad (PCBNEW 8.0.8) date 2025-01-21 20:37:45*
%MOMM*%
%LPD*%
G01*
G04 APERTURE LIST*
%TA.AperFunction,ComponentPad*%
%ADD10R,1.700000X1.700000*%
%TD*%
%TA.AperFunction,ComponentPad*%
%ADD11O,1.700000X1.700000*%
%TD*%
%TA.AperFunction,ComponentPad*%
%ADD12R,1.560000X1.560000*%
%TD*%
%TA.AperFunction,ComponentPad*%
%ADD13C,1.560000*%
%TD*%
%TA.AperFunction,ComponentPad*%
%ADD14R,2.600000X2.600000*%
%TD*%
%TA.AperFunction,ComponentPad*%
%ADD15C,2.600000*%
%TD*%
%TA.AperFunction,Conductor*%
%ADD16C,0.500000*%
%TD*%
G04 APERTURE END LIST*
D10*
%TO.N,GND*%
%TO.C,J7*%
X158083005Y-67005000D03*
D11*
%TO.N,SVR_PWR*%
X158083005Y-69545000D03*
%TO.N,SRV_7*%
X158083005Y-72085000D03*
%TD*%
D10*
%TO.N,GND*%
%TO.C,J17*%
X160020000Y-96520000D03*
D11*
%TO.N,5V*%
X162560000Y-96520000D03*
%TO.N,Misc_1*%
X165100000Y-96520000D03*
%TD*%
D10*
%TO.N,GND*%
%TO.C,J16*%
X127299506Y-67005000D03*
D11*
%TO.N,SVR_PWR*%
X127299506Y-69545000D03*
%TO.N,SRV_16*%
X127299506Y-72085000D03*
%TD*%
D10*
%TO.N,GND*%
%TO.C,J5*%
X149144643Y-67005000D03*
D11*
%TO.N,SVR_PWR*%
X149144643Y-69545000D03*
%TO.N,SRV_5*%
X149144643Y-72085000D03*
%TD*%
D12*
%TO.N,unconnected-(U1-3V3-PadJ2-1)*%
%TO.C,U1*%
X83888000Y-83611000D03*
D13*
%TO.N,unconnected-(U1-EN-PadJ2-2)*%
X83888000Y-86151000D03*
%TO.N,unconnected-(U1-SENSOR_VP-PadJ2-3)*%
X83888000Y-88691000D03*
%TO.N,unconnected-(U1-SENSOR_VN-PadJ2-4)*%
X83888000Y-91231000D03*
%TO.N,unconnected-(U1-IO34-PadJ2-5)*%
X83888000Y-93771000D03*
%TO.N,unconnected-(U1-IO35-PadJ2-6)*%
X83888000Y-96311000D03*
%TO.N,SRV_9*%
X83888000Y-98851000D03*
%TO.N,RA_TX*%
X83888000Y-101391000D03*
%TO.N,RA_RX*%
X83888000Y-103931000D03*
%TO.N,Misc_1*%
X83888000Y-106471000D03*
%TO.N,unconnected-(U1-IO27-PadJ2-11)*%
X83888000Y-109011000D03*
%TO.N,unconnected-(U1-IO14-PadJ2-12)*%
X83888000Y-111551000D03*
%TO.N,unconnected-(U1-IO12-PadJ2-13)*%
X83888000Y-114091000D03*
%TO.N,unconnected-(U1-GND1-PadJ2-14)*%
X83888000Y-116631000D03*
%TO.N,unconnected-(U1-IO13-PadJ2-15)*%
X83888000Y-119171000D03*
%TO.N,unconnected-(U1-SD2-PadJ2-16)*%
X83888000Y-121711000D03*
%TO.N,unconnected-(U1-SD3-PadJ2-17)*%
X83888000Y-124251000D03*
%TO.N,unconnected-(U1-CMD-PadJ2-18)*%
X83888000Y-126791000D03*
%TO.N,5V*%
X83888000Y-129331000D03*
%TO.N,GND*%
X109288000Y-83611000D03*
%TO.N,SRV_15*%
X109288000Y-86151000D03*
%TO.N,SRV_16*%
X109288000Y-88691000D03*
%TO.N,unconnected-(U1-TXD0-PadJ3-4)*%
X109288000Y-91231000D03*
%TO.N,unconnected-(U1-RXD0-PadJ3-5)*%
X109288000Y-93771000D03*
%TO.N,SRV_14*%
X109288000Y-96311000D03*
%TO.N,unconnected-(U1-GND2-PadJ3-7)*%
X109288000Y-98851000D03*
%TO.N,SRV_13*%
X109288000Y-101391000D03*
%TO.N,SRV_12*%
X109288000Y-103931000D03*
%TO.N,unconnected-(U1-IO5-PadJ3-10)*%
X109288000Y-106471000D03*
%TO.N,SRV_11*%
X109288000Y-109011000D03*
%TO.N,SRV_10*%
X109288000Y-111551000D03*
%TO.N,unconnected-(U1-IO4-PadJ3-13)*%
X109288000Y-114091000D03*
%TO.N,unconnected-(U1-IO0-PadJ3-14)*%
X109288000Y-116631000D03*
%TO.N,unconnected-(U1-IO2-PadJ3-15)*%
X109288000Y-119171000D03*
%TO.N,unconnected-(U1-IO15-PadJ3-16)*%
X109288000Y-121711000D03*
%TO.N,unconnected-(U1-SD1-PadJ3-17)*%
X109288000Y-124251000D03*
%TO.N,unconnected-(U1-SD0-PadJ3-18)*%
X109288000Y-126791000D03*
%TO.N,unconnected-(U1-CLK-PadJ3-19)*%
X109288000Y-129331000D03*
%TD*%
D10*
%TO.N,GND*%
%TO.C,J15*%
X122830325Y-67005000D03*
D11*
%TO.N,SVR_PWR*%
X122830325Y-69545000D03*
%TO.N,SRV_15*%
X122830325Y-72085000D03*
%TD*%
D10*
%TO.N,GND*%
%TO.C,J2*%
X136237868Y-67005000D03*
D11*
%TO.N,SVR_PWR*%
X136237868Y-69545000D03*
%TO.N,SRV_2*%
X136237868Y-72085000D03*
%TD*%
D14*
%TO.N,GND*%
%TO.C,J50*%
X89171000Y-64155000D03*
D15*
%TO.N,SVR_PWR*%
X84091000Y-64155000D03*
%TD*%
D10*
%TO.N,GND*%
%TO.C,J13*%
X113891963Y-67005000D03*
D11*
%TO.N,SVR_PWR*%
X113891963Y-69545000D03*
%TO.N,SRV_13*%
X113891963Y-72085000D03*
%TD*%
D10*
%TO.N,GND*%
%TO.C,J11*%
X104953601Y-67005000D03*
D11*
%TO.N,SVR_PWR*%
X104953601Y-69545000D03*
%TO.N,SRV_11*%
X104953601Y-72085000D03*
%TD*%
D10*
%TO.N,GND*%
%TO.C,J6*%
X153613824Y-67005000D03*
D11*
%TO.N,SVR_PWR*%
X153613824Y-69545000D03*
%TO.N,SRV_6*%
X153613824Y-72085000D03*
%TD*%
D12*
%TO.N,unconnected-(U4-3V3-PadJ2-1)*%
%TO.C,U4*%
X119380000Y-83611000D03*
D13*
%TO.N,unconnected-(U4-EN-PadJ2-2)*%
X119380000Y-86151000D03*
%TO.N,unconnected-(U4-SENSOR_VP-PadJ2-3)*%
X119380000Y-88691000D03*
%TO.N,unconnected-(U4-SENSOR_VN-PadJ2-4)*%
X119380000Y-91231000D03*
%TO.N,unconnected-(U4-IO34-PadJ2-5)*%
X119380000Y-93771000D03*
%TO.N,unconnected-(U4-IO35-PadJ2-6)*%
X119380000Y-96311000D03*
%TO.N,SRV_1*%
X119380000Y-98851000D03*
%TO.N,LA_TX*%
X119380000Y-101391000D03*
%TO.N,LA_RX*%
X119380000Y-103931000D03*
%TO.N,unconnected-(U4-IO26-PadJ2-10)*%
X119380000Y-106471000D03*
%TO.N,unconnected-(U4-IO27-PadJ2-11)*%
X119380000Y-109011000D03*
%TO.N,unconnected-(U4-IO14-PadJ2-12)*%
X119380000Y-111551000D03*
%TO.N,unconnected-(U4-IO12-PadJ2-13)*%
X119380000Y-114091000D03*
%TO.N,unconnected-(U4-GND1-PadJ2-14)*%
X119380000Y-116631000D03*
%TO.N,unconnected-(U4-IO13-PadJ2-15)*%
X119380000Y-119171000D03*
%TO.N,unconnected-(U4-SD2-PadJ2-16)*%
X119380000Y-121711000D03*
%TO.N,unconnected-(U4-SD3-PadJ2-17)*%
X119380000Y-124251000D03*
%TO.N,unconnected-(U4-CMD-PadJ2-18)*%
X119380000Y-126791000D03*
%TO.N,5V*%
X119380000Y-129331000D03*
%TO.N,GND*%
X144780000Y-83611000D03*
%TO.N,SRV_5*%
X144780000Y-86151000D03*
%TO.N,SRV_6*%
X144780000Y-88691000D03*
%TO.N,unconnected-(U4-TXD0-PadJ3-4)*%
X144780000Y-91231000D03*
%TO.N,unconnected-(U4-RXD0-PadJ3-5)*%
X144780000Y-93771000D03*
%TO.N,SRV_7*%
X144780000Y-96311000D03*
%TO.N,unconnected-(U4-GND2-PadJ3-7)*%
X144780000Y-98851000D03*
%TO.N,SRV_8*%
X144780000Y-101391000D03*
%TO.N,SRV_4*%
X144780000Y-103931000D03*
%TO.N,unconnected-(U4-IO5-PadJ3-10)*%
X144780000Y-106471000D03*
%TO.N,SRV_3*%
X144780000Y-109011000D03*
%TO.N,SRV_2*%
X144780000Y-111551000D03*
%TO.N,unconnected-(U4-IO4-PadJ3-13)*%
X144780000Y-114091000D03*
%TO.N,unconnected-(U4-IO0-PadJ3-14)*%
X144780000Y-116631000D03*
%TO.N,unconnected-(U4-IO2-PadJ3-15)*%
X144780000Y-119171000D03*
%TO.N,unconnected-(U4-IO15-PadJ3-16)*%
X144780000Y-121711000D03*
%TO.N,unconnected-(U4-SD1-PadJ3-17)*%
X144780000Y-124251000D03*
%TO.N,unconnected-(U4-SD0-PadJ3-18)*%
X144780000Y-126791000D03*
%TO.N,unconnected-(U4-CLK-PadJ3-19)*%
X144780000Y-129331000D03*
%TD*%
D10*
%TO.N,GND*%
%TO.C,J32*%
X159894084Y-80488027D03*
D11*
%TO.N,RA_RX*%
X162434084Y-80488027D03*
%TO.N,RA_TX*%
X164974084Y-80488027D03*
%TD*%
D10*
%TO.N,GND*%
%TO.C,J3*%
X140707049Y-67005000D03*
D11*
%TO.N,SVR_PWR*%
X140707049Y-69545000D03*
%TO.N,SRV_3*%
X140707049Y-72085000D03*
%TD*%
D10*
%TO.N,GND*%
%TO.C,J1*%
X131768687Y-67005000D03*
D11*
%TO.N,SVR_PWR*%
X131768687Y-69545000D03*
%TO.N,SRV_1*%
X131768687Y-72085000D03*
%TD*%
D10*
%TO.N,GND*%
%TO.C,J4*%
X145176230Y-67005000D03*
D11*
%TO.N,SVR_PWR*%
X145176230Y-69545000D03*
%TO.N,SRV_4*%
X145176230Y-72085000D03*
%TD*%
D14*
%TO.N,GND*%
%TO.C,J51*%
X160636000Y-125267000D03*
D15*
%TO.N,5V*%
X160636000Y-120187000D03*
%TD*%
D10*
%TO.N,GND*%
%TO.C,J9*%
X96095133Y-67142489D03*
D11*
%TO.N,SVR_PWR*%
X96095133Y-69682489D03*
%TO.N,SRV_9*%
X96095133Y-72222489D03*
%TD*%
D14*
%TO.N,GND*%
%TO.C,J28*%
X160636000Y-113353000D03*
D15*
%TO.N,5V*%
X160636000Y-108273000D03*
%TD*%
D10*
%TO.N,GND*%
%TO.C,J12*%
X109422782Y-67005000D03*
D11*
%TO.N,SVR_PWR*%
X109422782Y-69545000D03*
%TO.N,SRV_12*%
X109422782Y-72085000D03*
%TD*%
D10*
%TO.N,GND*%
%TO.C,J14*%
X118361144Y-67005000D03*
D11*
%TO.N,SVR_PWR*%
X118361144Y-69545000D03*
%TO.N,SRV_14*%
X118361144Y-72085000D03*
%TD*%
D10*
%TO.N,GND*%
%TO.C,J31*%
X160020000Y-88900000D03*
D11*
%TO.N,LA_RX*%
X162560000Y-88900000D03*
%TO.N,LA_TX*%
X165100000Y-88900000D03*
%TD*%
D10*
%TO.N,GND*%
%TO.C,J10*%
X100564315Y-67142489D03*
D11*
%TO.N,SVR_PWR*%
X100564315Y-69682489D03*
%TO.N,SRV_10*%
X100564315Y-72222489D03*
%TD*%
D10*
%TO.N,GND*%
%TO.C,J8*%
X162552186Y-67005000D03*
D11*
%TO.N,SVR_PWR*%
X162552186Y-69545000D03*
%TO.N,SRV_8*%
X162552186Y-72085000D03*
%TD*%
D16*
%TO.N,LA_RX*%
X151298528Y-100161472D02*
X162560000Y-88900000D01*
X123149528Y-100161472D02*
X151298528Y-100161472D01*
X119380000Y-103931000D02*
X123149528Y-100161472D01*
%TO.N,LA_TX*%
X119380000Y-101391000D02*
X133339410Y-87431590D01*
X162560000Y-86360000D02*
X165100000Y-88900000D01*
X160020000Y-86360000D02*
X162560000Y-86360000D01*
X133339410Y-87431590D02*
X158948410Y-87431590D01*
X158948410Y-87431590D02*
X160020000Y-86360000D01*
%TO.N,RA_RX*%
X102926416Y-84892584D02*
X158029527Y-84892584D01*
X158029527Y-84892584D02*
X162434084Y-80488027D01*
X83888000Y-103931000D02*
X102926416Y-84892584D01*
%TO.N,RA_TX*%
X164974084Y-80488027D02*
X164974084Y-80488028D01*
X109079000Y-76200000D02*
X160686057Y-76200000D01*
X160686057Y-76200000D02*
X164974084Y-80488027D01*
X83888000Y-101391000D02*
X109079000Y-76200000D01*
%TD*%
%TA.AperFunction,Conductor*%
%TO.N,SVR_PWR*%
G36*
X167516371Y-54304630D02*
G01*
X167583351Y-54324515D01*
X167628948Y-54377455D01*
X167640000Y-54428629D01*
X167640000Y-70945000D01*
X167620315Y-71012039D01*
X167567511Y-71057794D01*
X167516000Y-71069000D01*
X163494811Y-71069000D01*
X163427772Y-71049315D01*
X163423687Y-71046575D01*
X163237591Y-70916269D01*
X163193967Y-70861692D01*
X163186774Y-70792193D01*
X163218296Y-70729839D01*
X163237591Y-70713119D01*
X163423268Y-70583105D01*
X163590291Y-70416082D01*
X163725786Y-70222578D01*
X163825615Y-70008492D01*
X163825618Y-70008486D01*
X163882822Y-69795000D01*
X162985198Y-69795000D01*
X163018111Y-69737993D01*
X163052186Y-69610826D01*
X163052186Y-69479174D01*
X163018111Y-69352007D01*
X162985198Y-69295000D01*
X163882822Y-69295000D01*
X163882821Y-69294999D01*
X163825618Y-69081513D01*
X163825615Y-69081507D01*
X163725786Y-68867422D01*
X163725785Y-68867420D01*
X163590299Y-68673926D01*
X163590294Y-68673920D01*
X163468239Y-68551865D01*
X163434754Y-68490542D01*
X163439738Y-68420850D01*
X163481610Y-68364917D01*
X163512586Y-68348002D01*
X163644517Y-68298796D01*
X163759732Y-68212546D01*
X163845982Y-68097331D01*
X163896277Y-67962483D01*
X163902686Y-67902873D01*
X163902685Y-66107128D01*
X163896277Y-66047517D01*
X163861770Y-65955000D01*
X163845983Y-65912671D01*
X163845979Y-65912664D01*
X163759733Y-65797455D01*
X163759730Y-65797452D01*
X163644521Y-65711206D01*
X163644514Y-65711202D01*
X163509668Y-65660908D01*
X163509669Y-65660908D01*
X163450069Y-65654501D01*
X163450067Y-65654500D01*
X163450059Y-65654500D01*
X163450050Y-65654500D01*
X161654315Y-65654500D01*
X161654309Y-65654501D01*
X161594702Y-65660908D01*
X161459857Y-65711202D01*
X161459850Y-65711206D01*
X161344641Y-65797452D01*
X161344638Y-65797455D01*
X161258392Y-65912664D01*
X161258388Y-65912671D01*
X161208094Y-66047517D01*
X161201687Y-66107116D01*
X161201687Y-66107123D01*
X161201686Y-66107135D01*
X161201686Y-67902870D01*
X161201687Y-67902876D01*
X161208094Y-67962483D01*
X161258388Y-68097328D01*
X161258392Y-68097335D01*
X161344638Y-68212544D01*
X161344641Y-68212547D01*
X161459850Y-68298793D01*
X161459857Y-68298797D01*
X161459860Y-68298798D01*
X161591784Y-68348002D01*
X161647717Y-68389873D01*
X161672135Y-68455337D01*
X161657284Y-68523610D01*
X161636133Y-68551865D01*
X161514072Y-68673926D01*
X161378586Y-68867420D01*
X161378585Y-68867422D01*
X161278756Y-69081507D01*
X161278753Y-69081513D01*
X161221550Y-69294999D01*
X161221550Y-69295000D01*
X162119174Y-69295000D01*
X162086261Y-69352007D01*
X162052186Y-69479174D01*
X162052186Y-69610826D01*
X162086261Y-69737993D01*
X162119174Y-69795000D01*
X161221550Y-69795000D01*
X161278753Y-70008486D01*
X161278756Y-70008492D01*
X161378585Y-70222578D01*
X161514080Y-70416082D01*
X161681103Y-70583105D01*
X161866781Y-70713119D01*
X161910405Y-70767696D01*
X161917598Y-70837195D01*
X161886076Y-70899549D01*
X161866781Y-70916269D01*
X161680685Y-71046575D01*
X161614478Y-71068902D01*
X161609561Y-71069000D01*
X159025630Y-71069000D01*
X158958591Y-71049315D01*
X158954506Y-71046575D01*
X158768410Y-70916269D01*
X158724786Y-70861692D01*
X158717593Y-70792193D01*
X158749115Y-70729839D01*
X158768410Y-70713119D01*
X158954087Y-70583105D01*
X159121110Y-70416082D01*
X159256605Y-70222578D01*
X159356434Y-70008492D01*
X159356437Y-70008486D01*
X159413641Y-69795000D01*
X158516017Y-69795000D01*
X158548930Y-69737993D01*
X158583005Y-69610826D01*
X158583005Y-69479174D01*
X158548930Y-69352007D01*
X158516017Y-69295000D01*
X159413641Y-69295000D01*
X159413640Y-69294999D01*
X159356437Y-69081513D01*
X159356434Y-69081507D01*
X159256605Y-68867422D01*
X159256604Y-68867420D01*
X159121118Y-68673926D01*
X159121113Y-68673920D01*
X158999058Y-68551865D01*
X158965573Y-68490542D01*
X158970557Y-68420850D01*
X159012429Y-68364917D01*
X159043405Y-68348002D01*
X159175336Y-68298796D01*
X159290551Y-68212546D01*
X159376801Y-68097331D01*
X159427096Y-67962483D01*
X159433505Y-67902873D01*
X159433504Y-66107128D01*
X159427096Y-66047517D01*
X159392589Y-65955000D01*
X159376802Y-65912671D01*
X159376798Y-65912664D01*
X159290552Y-65797455D01*
X159290549Y-65797452D01*
X159175340Y-65711206D01*
X159175333Y-65711202D01*
X159040487Y-65660908D01*
X159040488Y-65660908D01*
X158980888Y-65654501D01*
X158980886Y-65654500D01*
X158980878Y-65654500D01*
X158980869Y-65654500D01*
X157185134Y-65654500D01*
X157185128Y-65654501D01*
X157125521Y-65660908D01*
X156990676Y-65711202D01*
X156990669Y-65711206D01*
X156875460Y-65797452D01*
X156875457Y-65797455D01*
X156789211Y-65912664D01*
X156789207Y-65912671D01*
X156738913Y-66047517D01*
X156732506Y-66107116D01*
X156732506Y-66107123D01*
X156732505Y-66107135D01*
X156732505Y-67902870D01*
X156732506Y-67902876D01*
X156738913Y-67962483D01*
X156789207Y-68097328D01*
X156789211Y-68097335D01*
X156875457Y-68212544D01*
X156875460Y-68212547D01*
X156990669Y-68298793D01*
X156990676Y-68298797D01*
X156990679Y-68298798D01*
X157122603Y-68348002D01*
X157178536Y-68389873D01*
X157202954Y-68455337D01*
X157188103Y-68523610D01*
X157166952Y-68551865D01*
X157044891Y-68673926D01*
X156909405Y-68867420D01*
X156909404Y-68867422D01*
X156809575Y-69081507D01*
X156809572Y-69081513D01*
X156752369Y-69294999D01*
X156752369Y-69295000D01*
X157649993Y-69295000D01*
X157617080Y-69352007D01*
X157583005Y-69479174D01*
X157583005Y-69610826D01*
X157617080Y-69737993D01*
X157649993Y-69795000D01*
X156752369Y-69795000D01*
X156809572Y-70008486D01*
X156809575Y-70008492D01*
X156909404Y-70222578D01*
X157044899Y-70416082D01*
X157211922Y-70583105D01*
X157397600Y-70713119D01*
X157441224Y-70767696D01*
X157448417Y-70837195D01*
X157416895Y-70899549D01*
X157397600Y-70916269D01*
X157211504Y-71046575D01*
X157145297Y-71068902D01*
X157140380Y-71069000D01*
X154556449Y-71069000D01*
X154489410Y-71049315D01*
X154485325Y-71046575D01*
X154299229Y-70916269D01*
X154255605Y-70861692D01*
X154248412Y-70792193D01*
X154279934Y-70729839D01*
X154299229Y-70713119D01*
X154484906Y-70583105D01*
X154651929Y-70416082D01*
X154787424Y-70222578D01*
X154887253Y-70008492D01*
X154887256Y-70008486D01*
X154944460Y-69795000D01*
X154046836Y-69795000D01*
X154079749Y-69737993D01*
X154113824Y-69610826D01*
X154113824Y-69479174D01*
X154079749Y-69352007D01*
X154046836Y-69295000D01*
X154944460Y-69295000D01*
X154944459Y-69294999D01*
X154887256Y-69081513D01*
X154887253Y-69081507D01*
X154787424Y-68867422D01*
X154787423Y-68867420D01*
X154651937Y-68673926D01*
X154651932Y-68673920D01*
X154529877Y-68551865D01*
X154496392Y-68490542D01*
X154501376Y-68420850D01*
X154543248Y-68364917D01*
X154574224Y-68348002D01*
X154706155Y-68298796D01*
X154821370Y-68212546D01*
X154907620Y-68097331D01*
X154957915Y-67962483D01*
X154964324Y-67902873D01*
X154964323Y-66107128D01*
X154957915Y-66047517D01*
X154923408Y-65955000D01*
X154907621Y-65912671D01*
X154907617Y-65912664D01*
X154821371Y-65797455D01*
X154821368Y-65797452D01*
X154706159Y-65711206D01*
X154706152Y-65711202D01*
X154571306Y-65660908D01*
X154571307Y-65660908D01*
X154511707Y-65654501D01*
X154511705Y-65654500D01*
X154511697Y-65654500D01*
X154511688Y-65654500D01*
X152715953Y-65654500D01*
X152715947Y-65654501D01*
X152656340Y-65660908D01*
X152521495Y-65711202D01*
X152521488Y-65711206D01*
X152406279Y-65797452D01*
X152406276Y-65797455D01*
X152320030Y-65912664D01*
X152320026Y-65912671D01*
X152269732Y-66047517D01*
X152263325Y-66107116D01*
X152263325Y-66107123D01*
X152263324Y-66107135D01*
X152263324Y-67902870D01*
X152263325Y-67902876D01*
X152269732Y-67962483D01*
X152320026Y-68097328D01*
X152320030Y-68097335D01*
X152406276Y-68212544D01*
X152406279Y-68212547D01*
X152521488Y-68298793D01*
X152521495Y-68298797D01*
X152521498Y-68298798D01*
X152653422Y-68348002D01*
X152709355Y-68389873D01*
X152733773Y-68455337D01*
X152718922Y-68523610D01*
X152697771Y-68551865D01*
X152575710Y-68673926D01*
X152440224Y-68867420D01*
X152440223Y-68867422D01*
X152340394Y-69081507D01*
X152340391Y-69081513D01*
X152283188Y-69294999D01*
X152283188Y-69295000D01*
X153180812Y-69295000D01*
X153147899Y-69352007D01*
X153113824Y-69479174D01*
X153113824Y-69610826D01*
X153147899Y-69737993D01*
X153180812Y-69795000D01*
X152283188Y-69795000D01*
X152340391Y-70008486D01*
X152340394Y-70008492D01*
X152440223Y-70222578D01*
X152575718Y-70416082D01*
X152742741Y-70583105D01*
X152928419Y-70713119D01*
X152972043Y-70767696D01*
X152979236Y-70837195D01*
X152947714Y-70899549D01*
X152928419Y-70916269D01*
X152742323Y-71046575D01*
X152676116Y-71068902D01*
X152671199Y-71069000D01*
X150087268Y-71069000D01*
X150020229Y-71049315D01*
X150016144Y-71046575D01*
X149830048Y-70916269D01*
X149786424Y-70861692D01*
X149779231Y-70792193D01*
X149810753Y-70729839D01*
X149830048Y-70713119D01*
X150015725Y-70583105D01*
X150182748Y-70416082D01*
X150318243Y-70222578D01*
X150418072Y-70008492D01*
X150418075Y-70008486D01*
X150475279Y-69795000D01*
X149577655Y-69795000D01*
X149610568Y-69737993D01*
X149644643Y-69610826D01*
X149644643Y-69479174D01*
X149610568Y-69352007D01*
X149577655Y-69295000D01*
X150475279Y-69295000D01*
X150475278Y-69294999D01*
X150418075Y-69081513D01*
X150418072Y-69081507D01*
X150318243Y-68867422D01*
X150318242Y-68867420D01*
X150182756Y-68673926D01*
X150182751Y-68673920D01*
X150060696Y-68551865D01*
X150027211Y-68490542D01*
X150032195Y-68420850D01*
X150074067Y-68364917D01*
X150105043Y-68348002D01*
X150236974Y-68298796D01*
X150352189Y-68212546D01*
X150438439Y-68097331D01*
X150488734Y-67962483D01*
X150495143Y-67902873D01*
X150495142Y-66107128D01*
X150488734Y-66047517D01*
X150454227Y-65955000D01*
X150438440Y-65912671D01*
X150438436Y-65912664D01*
X150352190Y-65797455D01*
X150352187Y-65797452D01*
X150236978Y-65711206D01*
X150236971Y-65711202D01*
X150102125Y-65660908D01*
X150102126Y-65660908D01*
X150042526Y-65654501D01*
X150042524Y-65654500D01*
X150042516Y-65654500D01*
X150042507Y-65654500D01*
X148246772Y-65654500D01*
X148246766Y-65654501D01*
X148187159Y-65660908D01*
X148052314Y-65711202D01*
X148052307Y-65711206D01*
X147937098Y-65797452D01*
X147937095Y-65797455D01*
X147850849Y-65912664D01*
X147850845Y-65912671D01*
X147800551Y-66047517D01*
X147794144Y-66107116D01*
X147794144Y-66107123D01*
X147794143Y-66107135D01*
X147794143Y-67902870D01*
X147794144Y-67902876D01*
X147800551Y-67962483D01*
X147850845Y-68097328D01*
X147850849Y-68097335D01*
X147937095Y-68212544D01*
X147937098Y-68212547D01*
X148052307Y-68298793D01*
X148052314Y-68298797D01*
X148052317Y-68298798D01*
X148184241Y-68348002D01*
X148240174Y-68389873D01*
X148264592Y-68455337D01*
X148249741Y-68523610D01*
X148228590Y-68551865D01*
X148106529Y-68673926D01*
X147971043Y-68867420D01*
X147971042Y-68867422D01*
X147871213Y-69081507D01*
X147871210Y-69081513D01*
X147814007Y-69294999D01*
X147814007Y-69295000D01*
X148711631Y-69295000D01*
X148678718Y-69352007D01*
X148644643Y-69479174D01*
X148644643Y-69610826D01*
X148678718Y-69737993D01*
X148711631Y-69795000D01*
X147814007Y-69795000D01*
X147871210Y-70008486D01*
X147871213Y-70008492D01*
X147971042Y-70222578D01*
X148106537Y-70416082D01*
X148273560Y-70583105D01*
X148459238Y-70713119D01*
X148502862Y-70767696D01*
X148510055Y-70837195D01*
X148478533Y-70899549D01*
X148459238Y-70916269D01*
X148273142Y-71046575D01*
X148206935Y-71068902D01*
X148202018Y-71069000D01*
X146118855Y-71069000D01*
X146051816Y-71049315D01*
X146047731Y-71046575D01*
X145861635Y-70916269D01*
X145818011Y-70861692D01*
X145810818Y-70792193D01*
X145842340Y-70729839D01*
X145861635Y-70713119D01*
X146047312Y-70583105D01*
X146214335Y-70416082D01*
X146349830Y-70222578D01*
X146449659Y-70008492D01*
X146449662Y-70008486D01*
X146506866Y-69795000D01*
X145609242Y-69795000D01*
X145642155Y-69737993D01*
X145676230Y-69610826D01*
X145676230Y-69479174D01*
X145642155Y-69352007D01*
X145609242Y-69295000D01*
X146506866Y-69295000D01*
X146506865Y-69294999D01*
X146449662Y-69081513D01*
X146449659Y-69081507D01*
X146349830Y-68867422D01*
X146349829Y-68867420D01*
X146214343Y-68673926D01*
X146214338Y-68673920D01*
X146092283Y-68551865D01*
X146058798Y-68490542D01*
X146063782Y-68420850D01*
X146105654Y-68364917D01*
X146136630Y-68348002D01*
X146268561Y-68298796D01*
X146383776Y-68212546D01*
X146470026Y-68097331D01*
X146520321Y-67962483D01*
X146526730Y-67902873D01*
X146526729Y-66107128D01*
X146520321Y-66047517D01*
X146485814Y-65955000D01*
X146470027Y-65912671D01*
X146470023Y-65912664D01*
X146383777Y-65797455D01*
X146383774Y-65797452D01*
X146268565Y-65711206D01*
X146268558Y-65711202D01*
X146133712Y-65660908D01*
X146133713Y-65660908D01*
X146074113Y-65654501D01*
X146074111Y-65654500D01*
X146074103Y-65654500D01*
X146074094Y-65654500D01*
X144278359Y-65654500D01*
X144278353Y-65654501D01*
X144218746Y-65660908D01*
X144083901Y-65711202D01*
X144083894Y-65711206D01*
X143968685Y-65797452D01*
X143968682Y-65797455D01*
X143882436Y-65912664D01*
X143882432Y-65912671D01*
X143832138Y-66047517D01*
X143825731Y-66107116D01*
X143825731Y-66107123D01*
X143825730Y-66107135D01*
X143825730Y-67902870D01*
X143825731Y-67902876D01*
X143832138Y-67962483D01*
X143882432Y-68097328D01*
X143882436Y-68097335D01*
X143968682Y-68212544D01*
X143968685Y-68212547D01*
X144083894Y-68298793D01*
X144083901Y-68298797D01*
X144083904Y-68298798D01*
X144215828Y-68348002D01*
X144271761Y-68389873D01*
X144296179Y-68455337D01*
X144281328Y-68523610D01*
X144260177Y-68551865D01*
X144138116Y-68673926D01*
X144002630Y-68867420D01*
X144002629Y-68867422D01*
X143902800Y-69081507D01*
X143902797Y-69081513D01*
X143845594Y-69294999D01*
X143845594Y-69295000D01*
X144743218Y-69295000D01*
X144710305Y-69352007D01*
X144676230Y-69479174D01*
X144676230Y-69610826D01*
X144710305Y-69737993D01*
X144743218Y-69795000D01*
X143845594Y-69795000D01*
X143902797Y-70008486D01*
X143902800Y-70008492D01*
X144002629Y-70222578D01*
X144138124Y-70416082D01*
X144305147Y-70583105D01*
X144490825Y-70713119D01*
X144534449Y-70767696D01*
X144541642Y-70837195D01*
X144510120Y-70899549D01*
X144490825Y-70916269D01*
X144304729Y-71046575D01*
X144238522Y-71068902D01*
X144233605Y-71069000D01*
X141649674Y-71069000D01*
X141582635Y-71049315D01*
X141578550Y-71046575D01*
X141392454Y-70916269D01*
X141348830Y-70861692D01*
X141341637Y-70792193D01*
X141373159Y-70729839D01*
X141392454Y-70713119D01*
X141578131Y-70583105D01*
X141745154Y-70416082D01*
X141880649Y-70222578D01*
X141980478Y-70008492D01*
X141980481Y-70008486D01*
X142037685Y-69795000D01*
X141140061Y-69795000D01*
X141172974Y-69737993D01*
X141207049Y-69610826D01*
X141207049Y-69479174D01*
X141172974Y-69352007D01*
X141140061Y-69295000D01*
X142037685Y-69295000D01*
X142037684Y-69294999D01*
X141980481Y-69081513D01*
X141980478Y-69081507D01*
X141880649Y-68867422D01*
X141880648Y-68867420D01*
X141745162Y-68673926D01*
X141745157Y-68673920D01*
X141623102Y-68551865D01*
X141589617Y-68490542D01*
X141594601Y-68420850D01*
X141636473Y-68364917D01*
X141667449Y-68348002D01*
X141799380Y-68298796D01*
X141914595Y-68212546D01*
X142000845Y-68097331D01*
X142051140Y-67962483D01*
X142057549Y-67902873D01*
X142057548Y-66107128D01*
X142051140Y-66047517D01*
X142016633Y-65955000D01*
X142000846Y-65912671D01*
X142000842Y-65912664D01*
X141914596Y-65797455D01*
X141914593Y-65797452D01*
X141799384Y-65711206D01*
X141799377Y-65711202D01*
X141664531Y-65660908D01*
X141664532Y-65660908D01*
X141604932Y-65654501D01*
X141604930Y-65654500D01*
X141604922Y-65654500D01*
X141604913Y-65654500D01*
X139809178Y-65654500D01*
X139809172Y-65654501D01*
X139749565Y-65660908D01*
X139614720Y-65711202D01*
X139614713Y-65711206D01*
X139499504Y-65797452D01*
X139499501Y-65797455D01*
X139413255Y-65912664D01*
X139413251Y-65912671D01*
X139362957Y-66047517D01*
X139356550Y-66107116D01*
X139356550Y-66107123D01*
X139356549Y-66107135D01*
X139356549Y-67902870D01*
X139356550Y-67902876D01*
X139362957Y-67962483D01*
X139413251Y-68097328D01*
X139413255Y-68097335D01*
X139499501Y-68212544D01*
X139499504Y-68212547D01*
X139614713Y-68298793D01*
X139614720Y-68298797D01*
X139614723Y-68298798D01*
X139746647Y-68348002D01*
X139802580Y-68389873D01*
X139826998Y-68455337D01*
X139812147Y-68523610D01*
X139790996Y-68551865D01*
X139668935Y-68673926D01*
X139533449Y-68867420D01*
X139533448Y-68867422D01*
X139433619Y-69081507D01*
X139433616Y-69081513D01*
X139376413Y-69294999D01*
X139376413Y-69295000D01*
X140274037Y-69295000D01*
X140241124Y-69352007D01*
X140207049Y-69479174D01*
X140207049Y-69610826D01*
X140241124Y-69737993D01*
X140274037Y-69795000D01*
X139376413Y-69795000D01*
X139433616Y-70008486D01*
X139433619Y-70008492D01*
X139533448Y-70222578D01*
X139668943Y-70416082D01*
X139835966Y-70583105D01*
X140021644Y-70713119D01*
X140065268Y-70767696D01*
X140072461Y-70837195D01*
X140040939Y-70899549D01*
X140021644Y-70916269D01*
X139835548Y-71046575D01*
X139769341Y-71068902D01*
X139764424Y-71069000D01*
X137180493Y-71069000D01*
X137113454Y-71049315D01*
X137109369Y-71046575D01*
X136923273Y-70916269D01*
X136879649Y-70861692D01*
X136872456Y-70792193D01*
X136903978Y-70729839D01*
X136923273Y-70713119D01*
X137108950Y-70583105D01*
X137275973Y-70416082D01*
X137411468Y-70222578D01*
X137511297Y-70008492D01*
X137511300Y-70008486D01*
X137568504Y-69795000D01*
X136670880Y-69795000D01*
X136703793Y-69737993D01*
X136737868Y-69610826D01*
X136737868Y-69479174D01*
X136703793Y-69352007D01*
X136670880Y-69295000D01*
X137568504Y-69295000D01*
X137568503Y-69294999D01*
X137511300Y-69081513D01*
X137511297Y-69081507D01*
X137411468Y-68867422D01*
X137411467Y-68867420D01*
X137275981Y-68673926D01*
X137275976Y-68673920D01*
X137153921Y-68551865D01*
X137120436Y-68490542D01*
X137125420Y-68420850D01*
X137167292Y-68364917D01*
X137198268Y-68348002D01*
X137330199Y-68298796D01*
X137445414Y-68212546D01*
X137531664Y-68097331D01*
X137581959Y-67962483D01*
X137588368Y-67902873D01*
X137588367Y-66107128D01*
X137581959Y-66047517D01*
X137547452Y-65955000D01*
X137531665Y-65912671D01*
X137531661Y-65912664D01*
X137445415Y-65797455D01*
X137445412Y-65797452D01*
X137330203Y-65711206D01*
X137330196Y-65711202D01*
X137195350Y-65660908D01*
X137195351Y-65660908D01*
X137135751Y-65654501D01*
X137135749Y-65654500D01*
X137135741Y-65654500D01*
X137135732Y-65654500D01*
X135339997Y-65654500D01*
X135339991Y-65654501D01*
X135280384Y-65660908D01*
X135145539Y-65711202D01*
X135145532Y-65711206D01*
X135030323Y-65797452D01*
X135030320Y-65797455D01*
X134944074Y-65912664D01*
X134944070Y-65912671D01*
X134893776Y-66047517D01*
X134887369Y-66107116D01*
X134887369Y-66107123D01*
X134887368Y-66107135D01*
X134887368Y-67902870D01*
X134887369Y-67902876D01*
X134893776Y-67962483D01*
X134944070Y-68097328D01*
X134944074Y-68097335D01*
X135030320Y-68212544D01*
X135030323Y-68212547D01*
X135145532Y-68298793D01*
X135145539Y-68298797D01*
X135145542Y-68298798D01*
X135277466Y-68348002D01*
X135333399Y-68389873D01*
X135357817Y-68455337D01*
X135342966Y-68523610D01*
X135321815Y-68551865D01*
X135199754Y-68673926D01*
X135064268Y-68867420D01*
X135064267Y-68867422D01*
X134964438Y-69081507D01*
X134964435Y-69081513D01*
X134907232Y-69294999D01*
X134907232Y-69295000D01*
X135804856Y-69295000D01*
X135771943Y-69352007D01*
X135737868Y-69479174D01*
X135737868Y-69610826D01*
X135771943Y-69737993D01*
X135804856Y-69795000D01*
X134907232Y-69795000D01*
X134964435Y-70008486D01*
X134964438Y-70008492D01*
X135064267Y-70222578D01*
X135199762Y-70416082D01*
X135366785Y-70583105D01*
X135552463Y-70713119D01*
X135596087Y-70767696D01*
X135603280Y-70837195D01*
X135571758Y-70899549D01*
X135552463Y-70916269D01*
X135366367Y-71046575D01*
X135300160Y-71068902D01*
X135295243Y-71069000D01*
X132711312Y-71069000D01*
X132644273Y-71049315D01*
X132640188Y-71046575D01*
X132454092Y-70916269D01*
X132410468Y-70861692D01*
X132403275Y-70792193D01*
X132434797Y-70729839D01*
X132454092Y-70713119D01*
X132639769Y-70583105D01*
X132806792Y-70416082D01*
X132942287Y-70222578D01*
X133042116Y-70008492D01*
X133042119Y-70008486D01*
X133099323Y-69795000D01*
X132201699Y-69795000D01*
X132234612Y-69737993D01*
X132268687Y-69610826D01*
X132268687Y-69479174D01*
X132234612Y-69352007D01*
X132201699Y-69295000D01*
X133099323Y-69295000D01*
X133099322Y-69294999D01*
X133042119Y-69081513D01*
X133042116Y-69081507D01*
X132942287Y-68867422D01*
X132942286Y-68867420D01*
X132806800Y-68673926D01*
X132806795Y-68673920D01*
X132684740Y-68551865D01*
X132651255Y-68490542D01*
X132656239Y-68420850D01*
X132698111Y-68364917D01*
X132729087Y-68348002D01*
X132861018Y-68298796D01*
X132976233Y-68212546D01*
X133062483Y-68097331D01*
X133112778Y-67962483D01*
X133119187Y-67902873D01*
X133119186Y-66107128D01*
X133112778Y-66047517D01*
X133078271Y-65955000D01*
X133062484Y-65912671D01*
X133062480Y-65912664D01*
X132976234Y-65797455D01*
X132976231Y-65797452D01*
X132861022Y-65711206D01*
X132861015Y-65711202D01*
X132726169Y-65660908D01*
X132726170Y-65660908D01*
X132666570Y-65654501D01*
X132666568Y-65654500D01*
X132666560Y-65654500D01*
X132666551Y-65654500D01*
X130870816Y-65654500D01*
X130870810Y-65654501D01*
X130811203Y-65660908D01*
X130676358Y-65711202D01*
X130676351Y-65711206D01*
X130561142Y-65797452D01*
X130561139Y-65797455D01*
X130474893Y-65912664D01*
X130474889Y-65912671D01*
X130424595Y-66047517D01*
X130418188Y-66107116D01*
X130418188Y-66107123D01*
X130418187Y-66107135D01*
X130418187Y-67902870D01*
X130418188Y-67902876D01*
X130424595Y-67962483D01*
X130474889Y-68097328D01*
X130474893Y-68097335D01*
X130561139Y-68212544D01*
X130561142Y-68212547D01*
X130676351Y-68298793D01*
X130676358Y-68298797D01*
X130676361Y-68298798D01*
X130808285Y-68348002D01*
X130864218Y-68389873D01*
X130888636Y-68455337D01*
X130873785Y-68523610D01*
X130852634Y-68551865D01*
X130730573Y-68673926D01*
X130595087Y-68867420D01*
X130595086Y-68867422D01*
X130495257Y-69081507D01*
X130495254Y-69081513D01*
X130438051Y-69294999D01*
X130438051Y-69295000D01*
X131335675Y-69295000D01*
X131302762Y-69352007D01*
X131268687Y-69479174D01*
X131268687Y-69610826D01*
X131302762Y-69737993D01*
X131335675Y-69795000D01*
X130438051Y-69795000D01*
X130495254Y-70008486D01*
X130495257Y-70008492D01*
X130595086Y-70222578D01*
X130730581Y-70416082D01*
X130897604Y-70583105D01*
X131083282Y-70713119D01*
X131126906Y-70767696D01*
X131134099Y-70837195D01*
X131102577Y-70899549D01*
X131083282Y-70916269D01*
X130897186Y-71046575D01*
X130830979Y-71068902D01*
X130826062Y-71069000D01*
X128242131Y-71069000D01*
X128175092Y-71049315D01*
X128171007Y-71046575D01*
X127984911Y-70916269D01*
X127941287Y-70861692D01*
X127934094Y-70792193D01*
X127965616Y-70729839D01*
X127984911Y-70713119D01*
X128170588Y-70583105D01*
X128337611Y-70416082D01*
X128473106Y-70222578D01*
X128572935Y-70008492D01*
X128572938Y-70008486D01*
X128630142Y-69795000D01*
X127732518Y-69795000D01*
X127765431Y-69737993D01*
X127799506Y-69610826D01*
X127799506Y-69479174D01*
X127765431Y-69352007D01*
X127732518Y-69295000D01*
X128630142Y-69295000D01*
X128630141Y-69294999D01*
X128572938Y-69081513D01*
X128572935Y-69081507D01*
X128473106Y-68867422D01*
X128473105Y-68867420D01*
X128337619Y-68673926D01*
X128337614Y-68673920D01*
X128215559Y-68551865D01*
X128182074Y-68490542D01*
X128187058Y-68420850D01*
X128228930Y-68364917D01*
X128259906Y-68348002D01*
X128391837Y-68298796D01*
X128507052Y-68212546D01*
X128593302Y-68097331D01*
X128643597Y-67962483D01*
X128650006Y-67902873D01*
X128650005Y-66107128D01*
X128643597Y-66047517D01*
X128609090Y-65955000D01*
X128593303Y-65912671D01*
X128593299Y-65912664D01*
X128507053Y-65797455D01*
X128507050Y-65797452D01*
X128391841Y-65711206D01*
X128391834Y-65711202D01*
X128256988Y-65660908D01*
X128256989Y-65660908D01*
X128197389Y-65654501D01*
X128197387Y-65654500D01*
X128197379Y-65654500D01*
X128197370Y-65654500D01*
X126401635Y-65654500D01*
X126401629Y-65654501D01*
X126342022Y-65660908D01*
X126207177Y-65711202D01*
X126207170Y-65711206D01*
X126091961Y-65797452D01*
X126091958Y-65797455D01*
X126005712Y-65912664D01*
X126005708Y-65912671D01*
X125955414Y-66047517D01*
X125949007Y-66107116D01*
X125949007Y-66107123D01*
X125949006Y-66107135D01*
X125949006Y-67902870D01*
X125949007Y-67902876D01*
X125955414Y-67962483D01*
X126005708Y-68097328D01*
X126005712Y-68097335D01*
X126091958Y-68212544D01*
X126091961Y-68212547D01*
X126207170Y-68298793D01*
X126207177Y-68298797D01*
X126207180Y-68298798D01*
X126339104Y-68348002D01*
X126395037Y-68389873D01*
X126419455Y-68455337D01*
X126404604Y-68523610D01*
X126383453Y-68551865D01*
X126261392Y-68673926D01*
X126125906Y-68867420D01*
X126125905Y-68867422D01*
X126026076Y-69081507D01*
X126026073Y-69081513D01*
X125968870Y-69294999D01*
X125968870Y-69295000D01*
X126866494Y-69295000D01*
X126833581Y-69352007D01*
X126799506Y-69479174D01*
X126799506Y-69610826D01*
X126833581Y-69737993D01*
X126866494Y-69795000D01*
X125968870Y-69795000D01*
X126026073Y-70008486D01*
X126026076Y-70008492D01*
X126125905Y-70222578D01*
X126261400Y-70416082D01*
X126428423Y-70583105D01*
X126614101Y-70713119D01*
X126657725Y-70767696D01*
X126664918Y-70837195D01*
X126633396Y-70899549D01*
X126614101Y-70916269D01*
X126428005Y-71046575D01*
X126361798Y-71068902D01*
X126356881Y-71069000D01*
X123772950Y-71069000D01*
X123705911Y-71049315D01*
X123701826Y-71046575D01*
X123515730Y-70916269D01*
X123472106Y-70861692D01*
X123464913Y-70792193D01*
X123496435Y-70729839D01*
X123515730Y-70713119D01*
X123701407Y-70583105D01*
X123868430Y-70416082D01*
X124003925Y-70222578D01*
X124103754Y-70008492D01*
X124103757Y-70008486D01*
X124160961Y-69795000D01*
X123263337Y-69795000D01*
X123296250Y-69737993D01*
X123330325Y-69610826D01*
X123330325Y-69479174D01*
X123296250Y-69352007D01*
X123263337Y-69295000D01*
X124160961Y-69295000D01*
X124160960Y-69294999D01*
X124103757Y-69081513D01*
X124103754Y-69081507D01*
X124003925Y-68867422D01*
X124003924Y-68867420D01*
X123868438Y-68673926D01*
X123868433Y-68673920D01*
X123746378Y-68551865D01*
X123712893Y-68490542D01*
X123717877Y-68420850D01*
X123759749Y-68364917D01*
X123790725Y-68348002D01*
X123922656Y-68298796D01*
X124037871Y-68212546D01*
X124124121Y-68097331D01*
X124174416Y-67962483D01*
X124180825Y-67902873D01*
X124180824Y-66107128D01*
X124174416Y-66047517D01*
X124139909Y-65955000D01*
X124124122Y-65912671D01*
X124124118Y-65912664D01*
X124037872Y-65797455D01*
X124037869Y-65797452D01*
X123922660Y-65711206D01*
X123922653Y-65711202D01*
X123787807Y-65660908D01*
X123787808Y-65660908D01*
X123728208Y-65654501D01*
X123728206Y-65654500D01*
X123728198Y-65654500D01*
X123728189Y-65654500D01*
X121932454Y-65654500D01*
X121932448Y-65654501D01*
X121872841Y-65660908D01*
X121737996Y-65711202D01*
X121737989Y-65711206D01*
X121622780Y-65797452D01*
X121622777Y-65797455D01*
X121536531Y-65912664D01*
X121536527Y-65912671D01*
X121486233Y-66047517D01*
X121479826Y-66107116D01*
X121479826Y-66107123D01*
X121479825Y-66107135D01*
X121479825Y-67902870D01*
X121479826Y-67902876D01*
X121486233Y-67962483D01*
X121536527Y-68097328D01*
X121536531Y-68097335D01*
X121622777Y-68212544D01*
X121622780Y-68212547D01*
X121737989Y-68298793D01*
X121737996Y-68298797D01*
X121737999Y-68298798D01*
X121869923Y-68348002D01*
X121925856Y-68389873D01*
X121950274Y-68455337D01*
X121935423Y-68523610D01*
X121914272Y-68551865D01*
X121792211Y-68673926D01*
X121656725Y-68867420D01*
X121656724Y-68867422D01*
X121556895Y-69081507D01*
X121556892Y-69081513D01*
X121499689Y-69294999D01*
X121499689Y-69295000D01*
X122397313Y-69295000D01*
X122364400Y-69352007D01*
X122330325Y-69479174D01*
X122330325Y-69610826D01*
X122364400Y-69737993D01*
X122397313Y-69795000D01*
X121499689Y-69795000D01*
X121556892Y-70008486D01*
X121556895Y-70008492D01*
X121656724Y-70222578D01*
X121792219Y-70416082D01*
X121959242Y-70583105D01*
X122144920Y-70713119D01*
X122188544Y-70767696D01*
X122195737Y-70837195D01*
X122164215Y-70899549D01*
X122144920Y-70916269D01*
X121958824Y-71046575D01*
X121892617Y-71068902D01*
X121887700Y-71069000D01*
X119303769Y-71069000D01*
X119236730Y-71049315D01*
X119232645Y-71046575D01*
X119046549Y-70916269D01*
X119002925Y-70861692D01*
X118995732Y-70792193D01*
X119027254Y-70729839D01*
X119046549Y-70713119D01*
X119232226Y-70583105D01*
X119399249Y-70416082D01*
X119534744Y-70222578D01*
X119634573Y-70008492D01*
X119634576Y-70008486D01*
X119691780Y-69795000D01*
X118794156Y-69795000D01*
X118827069Y-69737993D01*
X118861144Y-69610826D01*
X118861144Y-69479174D01*
X118827069Y-69352007D01*
X118794156Y-69295000D01*
X119691780Y-69295000D01*
X119691779Y-69294999D01*
X119634576Y-69081513D01*
X119634573Y-69081507D01*
X119534744Y-68867422D01*
X119534743Y-68867420D01*
X119399257Y-68673926D01*
X119399252Y-68673920D01*
X119277197Y-68551865D01*
X119243712Y-68490542D01*
X119248696Y-68420850D01*
X119290568Y-68364917D01*
X119321544Y-68348002D01*
X119453475Y-68298796D01*
X119568690Y-68212546D01*
X119654940Y-68097331D01*
X119705235Y-67962483D01*
X119711644Y-67902873D01*
X119711643Y-66107128D01*
X119705235Y-66047517D01*
X119670728Y-65955000D01*
X119654941Y-65912671D01*
X119654937Y-65912664D01*
X119568691Y-65797455D01*
X119568688Y-65797452D01*
X119453479Y-65711206D01*
X119453472Y-65711202D01*
X119318626Y-65660908D01*
X119318627Y-65660908D01*
X119259027Y-65654501D01*
X119259025Y-65654500D01*
X119259017Y-65654500D01*
X119259008Y-65654500D01*
X117463273Y-65654500D01*
X117463267Y-65654501D01*
X117403660Y-65660908D01*
X117268815Y-65711202D01*
X117268808Y-65711206D01*
X117153599Y-65797452D01*
X117153596Y-65797455D01*
X117067350Y-65912664D01*
X117067346Y-65912671D01*
X117017052Y-66047517D01*
X117010645Y-66107116D01*
X117010645Y-66107123D01*
X117010644Y-66107135D01*
X117010644Y-67902870D01*
X117010645Y-67902876D01*
X117017052Y-67962483D01*
X117067346Y-68097328D01*
X117067350Y-68097335D01*
X117153596Y-68212544D01*
X117153599Y-68212547D01*
X117268808Y-68298793D01*
X117268815Y-68298797D01*
X117268818Y-68298798D01*
X117400742Y-68348002D01*
X117456675Y-68389873D01*
X117481093Y-68455337D01*
X117466242Y-68523610D01*
X117445091Y-68551865D01*
X117323030Y-68673926D01*
X117187544Y-68867420D01*
X117187543Y-68867422D01*
X117087714Y-69081507D01*
X117087711Y-69081513D01*
X117030508Y-69294999D01*
X117030508Y-69295000D01*
X117928132Y-69295000D01*
X117895219Y-69352007D01*
X117861144Y-69479174D01*
X117861144Y-69610826D01*
X117895219Y-69737993D01*
X117928132Y-69795000D01*
X117030508Y-69795000D01*
X117087711Y-70008486D01*
X117087714Y-70008492D01*
X117187543Y-70222578D01*
X117323038Y-70416082D01*
X117490061Y-70583105D01*
X117675739Y-70713119D01*
X117719363Y-70767696D01*
X117726556Y-70837195D01*
X117695034Y-70899549D01*
X117675739Y-70916269D01*
X117489643Y-71046575D01*
X117423436Y-71068902D01*
X117418519Y-71069000D01*
X114834588Y-71069000D01*
X114767549Y-71049315D01*
X114763464Y-71046575D01*
X114577368Y-70916269D01*
X114533744Y-70861692D01*
X114526551Y-70792193D01*
X114558073Y-70729839D01*
X114577368Y-70713119D01*
X114763045Y-70583105D01*
X114930068Y-70416082D01*
X115065563Y-70222578D01*
X115165392Y-70008492D01*
X115165395Y-70008486D01*
X115222599Y-69795000D01*
X114324975Y-69795000D01*
X114357888Y-69737993D01*
X114391963Y-69610826D01*
X114391963Y-69479174D01*
X114357888Y-69352007D01*
X114324975Y-69295000D01*
X115222599Y-69295000D01*
X115222598Y-69294999D01*
X115165395Y-69081513D01*
X115165392Y-69081507D01*
X115065563Y-68867422D01*
X115065562Y-68867420D01*
X114930076Y-68673926D01*
X114930071Y-68673920D01*
X114808016Y-68551865D01*
X114774531Y-68490542D01*
X114779515Y-68420850D01*
X114821387Y-68364917D01*
X114852363Y-68348002D01*
X114984294Y-68298796D01*
X115099509Y-68212546D01*
X115185759Y-68097331D01*
X115236054Y-67962483D01*
X115242463Y-67902873D01*
X115242462Y-66107128D01*
X115236054Y-66047517D01*
X115201547Y-65955000D01*
X115185760Y-65912671D01*
X115185756Y-65912664D01*
X115099510Y-65797455D01*
X115099507Y-65797452D01*
X114984298Y-65711206D01*
X114984291Y-65711202D01*
X114849445Y-65660908D01*
X114849446Y-65660908D01*
X114789846Y-65654501D01*
X114789844Y-65654500D01*
X114789836Y-65654500D01*
X114789827Y-65654500D01*
X112994092Y-65654500D01*
X112994086Y-65654501D01*
X112934479Y-65660908D01*
X112799634Y-65711202D01*
X112799627Y-65711206D01*
X112684418Y-65797452D01*
X112684415Y-65797455D01*
X112598169Y-65912664D01*
X112598165Y-65912671D01*
X112547871Y-66047517D01*
X112541464Y-66107116D01*
X112541464Y-66107123D01*
X112541463Y-66107135D01*
X112541463Y-67902870D01*
X112541464Y-67902876D01*
X112547871Y-67962483D01*
X112598165Y-68097328D01*
X112598169Y-68097335D01*
X112684415Y-68212544D01*
X112684418Y-68212547D01*
X112799627Y-68298793D01*
X112799634Y-68298797D01*
X112799637Y-68298798D01*
X112931561Y-68348002D01*
X112987494Y-68389873D01*
X113011912Y-68455337D01*
X112997061Y-68523610D01*
X112975910Y-68551865D01*
X112853849Y-68673926D01*
X112718363Y-68867420D01*
X112718362Y-68867422D01*
X112618533Y-69081507D01*
X112618530Y-69081513D01*
X112561327Y-69294999D01*
X112561327Y-69295000D01*
X113458951Y-69295000D01*
X113426038Y-69352007D01*
X113391963Y-69479174D01*
X113391963Y-69610826D01*
X113426038Y-69737993D01*
X113458951Y-69795000D01*
X112561327Y-69795000D01*
X112618530Y-70008486D01*
X112618533Y-70008492D01*
X112718362Y-70222578D01*
X112853857Y-70416082D01*
X113020880Y-70583105D01*
X113206558Y-70713119D01*
X113250182Y-70767696D01*
X113257375Y-70837195D01*
X113225853Y-70899549D01*
X113206558Y-70916269D01*
X113020462Y-71046575D01*
X112954255Y-71068902D01*
X112949338Y-71069000D01*
X110365407Y-71069000D01*
X110298368Y-71049315D01*
X110294283Y-71046575D01*
X110108187Y-70916269D01*
X110064563Y-70861692D01*
X110057370Y-70792193D01*
X110088892Y-70729839D01*
X110108187Y-70713119D01*
X110293864Y-70583105D01*
X110460887Y-70416082D01*
X110596382Y-70222578D01*
X110696211Y-70008492D01*
X110696214Y-70008486D01*
X110753418Y-69795000D01*
X109855794Y-69795000D01*
X109888707Y-69737993D01*
X109922782Y-69610826D01*
X109922782Y-69479174D01*
X109888707Y-69352007D01*
X109855794Y-69295000D01*
X110753418Y-69295000D01*
X110753417Y-69294999D01*
X110696214Y-69081513D01*
X110696211Y-69081507D01*
X110596382Y-68867422D01*
X110596381Y-68867420D01*
X110460895Y-68673926D01*
X110460890Y-68673920D01*
X110338835Y-68551865D01*
X110305350Y-68490542D01*
X110310334Y-68420850D01*
X110352206Y-68364917D01*
X110383182Y-68348002D01*
X110515113Y-68298796D01*
X110630328Y-68212546D01*
X110716578Y-68097331D01*
X110766873Y-67962483D01*
X110773282Y-67902873D01*
X110773281Y-66107128D01*
X110766873Y-66047517D01*
X110732366Y-65955000D01*
X110716579Y-65912671D01*
X110716575Y-65912664D01*
X110630329Y-65797455D01*
X110630326Y-65797452D01*
X110515117Y-65711206D01*
X110515110Y-65711202D01*
X110380264Y-65660908D01*
X110380265Y-65660908D01*
X110320665Y-65654501D01*
X110320663Y-65654500D01*
X110320655Y-65654500D01*
X110320646Y-65654500D01*
X108524911Y-65654500D01*
X108524905Y-65654501D01*
X108465298Y-65660908D01*
X108330453Y-65711202D01*
X108330446Y-65711206D01*
X108215237Y-65797452D01*
X108215234Y-65797455D01*
X108128988Y-65912664D01*
X108128984Y-65912671D01*
X108078690Y-66047517D01*
X108072283Y-66107116D01*
X108072283Y-66107123D01*
X108072282Y-66107135D01*
X108072282Y-67902870D01*
X108072283Y-67902876D01*
X108078690Y-67962483D01*
X108128984Y-68097328D01*
X108128988Y-68097335D01*
X108215234Y-68212544D01*
X108215237Y-68212547D01*
X108330446Y-68298793D01*
X108330453Y-68298797D01*
X108330456Y-68298798D01*
X108462380Y-68348002D01*
X108518313Y-68389873D01*
X108542731Y-68455337D01*
X108527880Y-68523610D01*
X108506729Y-68551865D01*
X108384668Y-68673926D01*
X108249182Y-68867420D01*
X108249181Y-68867422D01*
X108149352Y-69081507D01*
X108149349Y-69081513D01*
X108092146Y-69294999D01*
X108092146Y-69295000D01*
X108989770Y-69295000D01*
X108956857Y-69352007D01*
X108922782Y-69479174D01*
X108922782Y-69610826D01*
X108956857Y-69737993D01*
X108989770Y-69795000D01*
X108092146Y-69795000D01*
X108149349Y-70008486D01*
X108149352Y-70008492D01*
X108249181Y-70222578D01*
X108384676Y-70416082D01*
X108551699Y-70583105D01*
X108737377Y-70713119D01*
X108781001Y-70767696D01*
X108788194Y-70837195D01*
X108756672Y-70899549D01*
X108737377Y-70916269D01*
X108551281Y-71046575D01*
X108485074Y-71068902D01*
X108480157Y-71069000D01*
X105896226Y-71069000D01*
X105829187Y-71049315D01*
X105825102Y-71046575D01*
X105639006Y-70916269D01*
X105595382Y-70861692D01*
X105588189Y-70792193D01*
X105619711Y-70729839D01*
X105639006Y-70713119D01*
X105824683Y-70583105D01*
X105991706Y-70416082D01*
X106127201Y-70222578D01*
X106227030Y-70008492D01*
X106227033Y-70008486D01*
X106284237Y-69795000D01*
X105386613Y-69795000D01*
X105419526Y-69737993D01*
X105453601Y-69610826D01*
X105453601Y-69479174D01*
X105419526Y-69352007D01*
X105386613Y-69295000D01*
X106284237Y-69295000D01*
X106284236Y-69294999D01*
X106227033Y-69081513D01*
X106227030Y-69081507D01*
X106127201Y-68867422D01*
X106127200Y-68867420D01*
X105991714Y-68673926D01*
X105991709Y-68673920D01*
X105869654Y-68551865D01*
X105836169Y-68490542D01*
X105841153Y-68420850D01*
X105883025Y-68364917D01*
X105914001Y-68348002D01*
X106045932Y-68298796D01*
X106161147Y-68212546D01*
X106247397Y-68097331D01*
X106297692Y-67962483D01*
X106304101Y-67902873D01*
X106304100Y-66107128D01*
X106297692Y-66047517D01*
X106263185Y-65955000D01*
X106247398Y-65912671D01*
X106247394Y-65912664D01*
X106161148Y-65797455D01*
X106161145Y-65797452D01*
X106045936Y-65711206D01*
X106045929Y-65711202D01*
X105911083Y-65660908D01*
X105911084Y-65660908D01*
X105851484Y-65654501D01*
X105851482Y-65654500D01*
X105851474Y-65654500D01*
X105851465Y-65654500D01*
X104055730Y-65654500D01*
X104055724Y-65654501D01*
X103996117Y-65660908D01*
X103861272Y-65711202D01*
X103861265Y-65711206D01*
X103746056Y-65797452D01*
X103746053Y-65797455D01*
X103659807Y-65912664D01*
X103659803Y-65912671D01*
X103609509Y-66047517D01*
X103603102Y-66107116D01*
X103603102Y-66107123D01*
X103603101Y-66107135D01*
X103603101Y-67902870D01*
X103603102Y-67902876D01*
X103609509Y-67962483D01*
X103659803Y-68097328D01*
X103659807Y-68097335D01*
X103746053Y-68212544D01*
X103746056Y-68212547D01*
X103861265Y-68298793D01*
X103861272Y-68298797D01*
X103861275Y-68298798D01*
X103993199Y-68348002D01*
X104049132Y-68389873D01*
X104073550Y-68455337D01*
X104058699Y-68523610D01*
X104037548Y-68551865D01*
X103915487Y-68673926D01*
X103780001Y-68867420D01*
X103780000Y-68867422D01*
X103680171Y-69081507D01*
X103680168Y-69081513D01*
X103622965Y-69294999D01*
X103622965Y-69295000D01*
X104520589Y-69295000D01*
X104487676Y-69352007D01*
X104453601Y-69479174D01*
X104453601Y-69610826D01*
X104487676Y-69737993D01*
X104520589Y-69795000D01*
X103622965Y-69795000D01*
X103680168Y-70008486D01*
X103680171Y-70008492D01*
X103780000Y-70222578D01*
X103915495Y-70416082D01*
X104082518Y-70583105D01*
X104268196Y-70713119D01*
X104311820Y-70767696D01*
X104319013Y-70837195D01*
X104287491Y-70899549D01*
X104268196Y-70916269D01*
X104082100Y-71046575D01*
X104015893Y-71068902D01*
X104010976Y-71069000D01*
X101331103Y-71069000D01*
X101264064Y-71049315D01*
X101218309Y-70996511D01*
X101208365Y-70927353D01*
X101237390Y-70863797D01*
X101259979Y-70843425D01*
X101435397Y-70720594D01*
X101602420Y-70553571D01*
X101737915Y-70360067D01*
X101837744Y-70145981D01*
X101837747Y-70145975D01*
X101894951Y-69932489D01*
X100997327Y-69932489D01*
X101030240Y-69875482D01*
X101064315Y-69748315D01*
X101064315Y-69616663D01*
X101030240Y-69489496D01*
X100997327Y-69432489D01*
X101894951Y-69432489D01*
X101894950Y-69432488D01*
X101837747Y-69219002D01*
X101837744Y-69218996D01*
X101737915Y-69004911D01*
X101737914Y-69004909D01*
X101602428Y-68811415D01*
X101602423Y-68811409D01*
X101480368Y-68689354D01*
X101446883Y-68628031D01*
X101451867Y-68558339D01*
X101493739Y-68502406D01*
X101524715Y-68485491D01*
X101656646Y-68436285D01*
X101771861Y-68350035D01*
X101858111Y-68234820D01*
X101908406Y-68099972D01*
X101914815Y-68040362D01*
X101914814Y-66244617D01*
X101908406Y-66185006D01*
X101879359Y-66107128D01*
X101858112Y-66050160D01*
X101858108Y-66050153D01*
X101771862Y-65934944D01*
X101771859Y-65934941D01*
X101656650Y-65848695D01*
X101656643Y-65848691D01*
X101521797Y-65798397D01*
X101521798Y-65798397D01*
X101462198Y-65791990D01*
X101462196Y-65791989D01*
X101462188Y-65791989D01*
X101462179Y-65791989D01*
X99666444Y-65791989D01*
X99666438Y-65791990D01*
X99606831Y-65798397D01*
X99471986Y-65848691D01*
X99471979Y-65848695D01*
X99356770Y-65934941D01*
X99356767Y-65934944D01*
X99270521Y-66050153D01*
X99270517Y-66050160D01*
X99220223Y-66185006D01*
X99213816Y-66244605D01*
X99213816Y-66244612D01*
X99213815Y-66244624D01*
X99213815Y-68040359D01*
X99213816Y-68040365D01*
X99220223Y-68099972D01*
X99270517Y-68234817D01*
X99270521Y-68234824D01*
X99356767Y-68350033D01*
X99356770Y-68350036D01*
X99471979Y-68436282D01*
X99471986Y-68436286D01*
X99471989Y-68436287D01*
X99603913Y-68485491D01*
X99659846Y-68527362D01*
X99684264Y-68592826D01*
X99669413Y-68661099D01*
X99648262Y-68689354D01*
X99526201Y-68811415D01*
X99390715Y-69004909D01*
X99390714Y-69004911D01*
X99290885Y-69218996D01*
X99290882Y-69219002D01*
X99233679Y-69432488D01*
X99233679Y-69432489D01*
X100131303Y-69432489D01*
X100098390Y-69489496D01*
X100064315Y-69616663D01*
X100064315Y-69748315D01*
X100098390Y-69875482D01*
X100131303Y-69932489D01*
X99233679Y-69932489D01*
X99290882Y-70145975D01*
X99290885Y-70145981D01*
X99390714Y-70360067D01*
X99526209Y-70553571D01*
X99693232Y-70720594D01*
X99868651Y-70843425D01*
X99912276Y-70898003D01*
X99919468Y-70967501D01*
X99887946Y-71029856D01*
X99827716Y-71065269D01*
X99797527Y-71069000D01*
X96861921Y-71069000D01*
X96794882Y-71049315D01*
X96749127Y-70996511D01*
X96739183Y-70927353D01*
X96768208Y-70863797D01*
X96790797Y-70843425D01*
X96966215Y-70720594D01*
X97133238Y-70553571D01*
X97268733Y-70360067D01*
X97368562Y-70145981D01*
X97368565Y-70145975D01*
X97425769Y-69932489D01*
X96528145Y-69932489D01*
X96561058Y-69875482D01*
X96595133Y-69748315D01*
X96595133Y-69616663D01*
X96561058Y-69489496D01*
X96528145Y-69432489D01*
X97425769Y-69432489D01*
X97425768Y-69432488D01*
X97368565Y-69219002D01*
X97368562Y-69218996D01*
X97268733Y-69004911D01*
X97268732Y-69004909D01*
X97133246Y-68811415D01*
X97133241Y-68811409D01*
X97011186Y-68689354D01*
X96977701Y-68628031D01*
X96982685Y-68558339D01*
X97024557Y-68502406D01*
X97055533Y-68485491D01*
X97187464Y-68436285D01*
X97302679Y-68350035D01*
X97388929Y-68234820D01*
X97439224Y-68099972D01*
X97445633Y-68040362D01*
X97445632Y-66244617D01*
X97439224Y-66185006D01*
X97410177Y-66107128D01*
X97388930Y-66050160D01*
X97388926Y-66050153D01*
X97302680Y-65934944D01*
X97302677Y-65934941D01*
X97187468Y-65848695D01*
X97187461Y-65848691D01*
X97052615Y-65798397D01*
X97052616Y-65798397D01*
X96993016Y-65791990D01*
X96993014Y-65791989D01*
X96993006Y-65791989D01*
X96992997Y-65791989D01*
X95197262Y-65791989D01*
X95197256Y-65791990D01*
X95137649Y-65798397D01*
X95002804Y-65848691D01*
X95002797Y-65848695D01*
X94887588Y-65934941D01*
X94887585Y-65934944D01*
X94801339Y-66050153D01*
X94801335Y-66050160D01*
X94751041Y-66185006D01*
X94744634Y-66244605D01*
X94744634Y-66244612D01*
X94744633Y-66244624D01*
X94744633Y-68040359D01*
X94744634Y-68040365D01*
X94751041Y-68099972D01*
X94801335Y-68234817D01*
X94801339Y-68234824D01*
X94887585Y-68350033D01*
X94887588Y-68350036D01*
X95002797Y-68436282D01*
X95002804Y-68436286D01*
X95002807Y-68436287D01*
X95134731Y-68485491D01*
X95190664Y-68527362D01*
X95215082Y-68592826D01*
X95200231Y-68661099D01*
X95179080Y-68689354D01*
X95057019Y-68811415D01*
X94921533Y-69004909D01*
X94921532Y-69004911D01*
X94821703Y-69218996D01*
X94821700Y-69219002D01*
X94764497Y-69432488D01*
X94764497Y-69432489D01*
X95662121Y-69432489D01*
X95629208Y-69489496D01*
X95595133Y-69616663D01*
X95595133Y-69748315D01*
X95629208Y-69875482D01*
X95662121Y-69932489D01*
X94764497Y-69932489D01*
X94821700Y-70145975D01*
X94821703Y-70145981D01*
X94921532Y-70360067D01*
X95057027Y-70553571D01*
X95224050Y-70720594D01*
X95399469Y-70843425D01*
X95443094Y-70898003D01*
X95450286Y-70967501D01*
X95418764Y-71029856D01*
X95358534Y-71065269D01*
X95328345Y-71069000D01*
X82618541Y-71069000D01*
X82551502Y-71049315D01*
X82505747Y-70996511D01*
X82494592Y-70941459D01*
X82504831Y-70583105D01*
X82657639Y-65234805D01*
X83489957Y-64402487D01*
X83514978Y-64462890D01*
X83586112Y-64569351D01*
X83676649Y-64659888D01*
X83783110Y-64731022D01*
X83843511Y-64756041D01*
X83005848Y-65593703D01*
X83188476Y-65718216D01*
X83188485Y-65718221D01*
X83431539Y-65835269D01*
X83431537Y-65835269D01*
X83689337Y-65914790D01*
X83689343Y-65914792D01*
X83956101Y-65954999D01*
X83956110Y-65955000D01*
X84225890Y-65955000D01*
X84225898Y-65954999D01*
X84492656Y-65914792D01*
X84492662Y-65914790D01*
X84750461Y-65835269D01*
X84993516Y-65718221D01*
X84993517Y-65718220D01*
X85176150Y-65593703D01*
X84338487Y-64756041D01*
X84398890Y-64731022D01*
X84505351Y-64659888D01*
X84595888Y-64569351D01*
X84667022Y-64462890D01*
X84692041Y-64402487D01*
X85528703Y-65239150D01*
X85528704Y-65239149D01*
X85582400Y-65171818D01*
X85717290Y-64938181D01*
X85815851Y-64687052D01*
X85815857Y-64687033D01*
X85875886Y-64424028D01*
X85875886Y-64424026D01*
X85896047Y-64155004D01*
X85896047Y-64154995D01*
X85875886Y-63885973D01*
X85875886Y-63885971D01*
X85815857Y-63622966D01*
X85815851Y-63622947D01*
X85717290Y-63371818D01*
X85717291Y-63371818D01*
X85582400Y-63138182D01*
X85582393Y-63138171D01*
X85528704Y-63070849D01*
X85528703Y-63070848D01*
X84692041Y-63907511D01*
X84667022Y-63847110D01*
X84595888Y-63740649D01*
X84505351Y-63650112D01*
X84398890Y-63578978D01*
X84338487Y-63553958D01*
X85085310Y-62807135D01*
X87370500Y-62807135D01*
X87370500Y-65502870D01*
X87370501Y-65502876D01*
X87376908Y-65562483D01*
X87427202Y-65697328D01*
X87427206Y-65697335D01*
X87513452Y-65812544D01*
X87513455Y-65812547D01*
X87628664Y-65898793D01*
X87628671Y-65898797D01*
X87763517Y-65949091D01*
X87763516Y-65949091D01*
X87770444Y-65949835D01*
X87823127Y-65955500D01*
X90518872Y-65955499D01*
X90578483Y-65949091D01*
X90713331Y-65898796D01*
X90828546Y-65812546D01*
X90914796Y-65697331D01*
X90965091Y-65562483D01*
X90971500Y-65502873D01*
X90971499Y-62807128D01*
X90965091Y-62747517D01*
X90914796Y-62612669D01*
X90914795Y-62612668D01*
X90914793Y-62612664D01*
X90828547Y-62497455D01*
X90828544Y-62497452D01*
X90713335Y-62411206D01*
X90713328Y-62411202D01*
X90578482Y-62360908D01*
X90578483Y-62360908D01*
X90518883Y-62354501D01*
X90518881Y-62354500D01*
X90518873Y-62354500D01*
X90518864Y-62354500D01*
X87823129Y-62354500D01*
X87823123Y-62354501D01*
X87763516Y-62360908D01*
X87628671Y-62411202D01*
X87628664Y-62411206D01*
X87513455Y-62497452D01*
X87513452Y-62497455D01*
X87427206Y-62612664D01*
X87427202Y-62612671D01*
X87376908Y-62747517D01*
X87372137Y-62791901D01*
X87370501Y-62807123D01*
X87370500Y-62807135D01*
X85085310Y-62807135D01*
X85176150Y-62716295D01*
X84993524Y-62591783D01*
X84993516Y-62591778D01*
X84750460Y-62474730D01*
X84750462Y-62474730D01*
X84492662Y-62395209D01*
X84492656Y-62395207D01*
X84225898Y-62355000D01*
X83956101Y-62355000D01*
X83689343Y-62395207D01*
X83689337Y-62395209D01*
X83431538Y-62474730D01*
X83188485Y-62591778D01*
X83188483Y-62591779D01*
X82965571Y-62743757D01*
X82939097Y-62768322D01*
X82876564Y-62799489D01*
X82807108Y-62791901D01*
X82752780Y-62747967D01*
X82730829Y-62681635D01*
X82730808Y-62673898D01*
X82744948Y-62179000D01*
X82744948Y-54175371D01*
X82764633Y-54108332D01*
X82817437Y-54062577D01*
X82869318Y-54051372D01*
X167516371Y-54304630D01*
G37*
%TD.AperFunction*%
%TD*%
M02*
