M48
; DRILL file {KiCad 8.0.8} date 2025-01-21T20:47:07-0500
; FORMAT={-:-/ absolute / metric / decimal}
; #@! TF.CreationDate,2025-01-21T20:47:07-05:00
; #@! TF.GenerationSoftware,Kicad,Pcbnew,8.0.8
; #@! TF.FileFunction,Plated,1,4,PTH
FMAT,2
METRIC
; #@! TA.AperFunction,Plated,PTH,ComponentDrill
T1C1.000
; #@! TA.AperFunction,Plated,PTH,ComponentDrill
T2C1.040
; #@! TA.AperFunction,Plated,PTH,ComponentDrill
T3C1.300
%
G90
G05
T1
X96.095Y-67.142
X96.095Y-69.682
X96.095Y-72.222
X100.564Y-67.142
X100.564Y-69.682
X100.564Y-72.222
X104.954Y-67.005
X104.954Y-69.545
X104.954Y-72.085
X109.423Y-67.005
X109.423Y-69.545
X109.423Y-72.085
X113.892Y-67.005
X113.892Y-69.545
X113.892Y-72.085
X118.361Y-67.005
X118.361Y-69.545
X118.361Y-72.085
X122.83Y-67.005
X122.83Y-69.545
X122.83Y-72.085
X127.3Y-67.005
X127.3Y-69.545
X127.3Y-72.085
X131.769Y-67.005
X131.769Y-69.545
X131.769Y-72.085
X136.238Y-67.005
X136.238Y-69.545
X136.238Y-72.085
X140.707Y-67.005
X140.707Y-69.545
X140.707Y-72.085
X145.176Y-67.005
X145.176Y-69.545
X145.176Y-72.085
X149.145Y-67.005
X149.145Y-69.545
X149.145Y-72.085
X153.614Y-67.005
X153.614Y-69.545
X153.614Y-72.085
X158.083Y-67.005
X158.083Y-69.545
X158.083Y-72.085
X159.894Y-80.488
X160.02Y-88.9
X160.02Y-96.52
X162.434Y-80.488
X162.552Y-67.005
X162.552Y-69.545
X162.552Y-72.085
X162.56Y-88.9
X162.56Y-96.52
X164.974Y-80.488
X165.1Y-88.9
X165.1Y-96.52
T2
X83.888Y-83.611
X83.888Y-86.151
X83.888Y-88.691
X83.888Y-91.231
X83.888Y-93.771
X83.888Y-96.311
X83.888Y-98.851
X83.888Y-101.391
X83.888Y-103.931
X83.888Y-106.471
X83.888Y-109.011
X83.888Y-111.551
X83.888Y-114.091
X83.888Y-116.631
X83.888Y-119.171
X83.888Y-121.711
X83.888Y-124.251
X83.888Y-126.791
X83.888Y-129.331
X109.288Y-83.611
X109.288Y-86.151
X109.288Y-88.691
X109.288Y-91.231
X109.288Y-93.771
X109.288Y-96.311
X109.288Y-98.851
X109.288Y-101.391
X109.288Y-103.931
X109.288Y-106.471
X109.288Y-109.011
X109.288Y-111.551
X109.288Y-114.091
X109.288Y-116.631
X109.288Y-119.171
X109.288Y-121.711
X109.288Y-124.251
X109.288Y-126.791
X109.288Y-129.331
X119.38Y-83.611
X119.38Y-86.151
X119.38Y-88.691
X119.38Y-91.231
X119.38Y-93.771
X119.38Y-96.311
X119.38Y-98.851
X119.38Y-101.391
X119.38Y-103.931
X119.38Y-106.471
X119.38Y-109.011
X119.38Y-111.551
X119.38Y-114.091
X119.38Y-116.631
X119.38Y-119.171
X119.38Y-121.711
X119.38Y-124.251
X119.38Y-126.791
X119.38Y-129.331
X144.78Y-83.611
X144.78Y-86.151
X144.78Y-88.691
X144.78Y-91.231
X144.78Y-93.771
X144.78Y-96.311
X144.78Y-98.851
X144.78Y-101.391
X144.78Y-103.931
X144.78Y-106.471
X144.78Y-109.011
X144.78Y-111.551
X144.78Y-114.091
X144.78Y-116.631
X144.78Y-119.171
X144.78Y-121.711
X144.78Y-124.251
X144.78Y-126.791
X144.78Y-129.331
T3
X84.091Y-64.155
X89.171Y-64.155
X160.636Y-108.273
X160.636Y-113.353
X160.636Y-120.187
X160.636Y-125.267
M30
